<svg width="184" height="28" viewBox="0 0 184 28" fill="none" xmlns="http://www.w3.org/2000/svg">
<path d="M0.703125 27V10.2H13.0871V12.408H3.22313V17.448H9.70312V19.584H3.22313V24.792H13.1831V27H0.703125Z" fill="#1C1729"/>
<path d="M20.4686 27.192C19.3326 27.192 18.2926 26.912 17.3486 26.352C16.4046 25.792 15.6606 25.04 15.1166 24.096C14.5726 23.136 14.3006 22.064 14.3006 20.88C14.3006 19.696 14.5726 18.632 15.1166 17.688C15.6766 16.744 16.4286 15.992 17.3726 15.432C18.3166 14.872 19.3646 14.592 20.5166 14.592C21.1886 14.592 21.8366 14.696 22.4606 14.904C23.0846 15.112 23.6606 15.416 24.1886 15.816V10.2L26.5886 9.74398V27H24.2126V25.824C23.1726 26.736 21.9246 27.192 20.4686 27.192ZM20.7806 25.104C21.4846 25.104 22.1246 24.976 22.7006 24.72C23.2926 24.464 23.7886 24.096 24.1886 23.616V18.12C23.7886 17.672 23.2926 17.32 22.7006 17.064C22.1246 16.792 21.4846 16.656 20.7806 16.656C20.0126 16.656 19.3166 16.84 18.6926 17.208C18.0686 17.576 17.5726 18.08 17.2046 18.72C16.8366 19.344 16.6526 20.056 16.6526 20.856C16.6526 21.656 16.8366 22.376 17.2046 23.016C17.5726 23.656 18.0686 24.168 18.6926 24.552C19.3166 24.92 20.0126 25.104 20.7806 25.104Z" fill="#1C1729"/>
<path d="M34.1587 27.24C33.2147 27.24 32.3828 27.04 31.6628 26.64C30.9428 26.24 30.3828 25.68 29.9827 24.96C29.5827 24.224 29.3827 23.384 29.3827 22.44V14.784H31.7588V22.032C31.7588 22.992 32.0308 23.752 32.5748 24.312C33.1348 24.872 33.8788 25.152 34.8068 25.152C35.4628 25.152 36.0468 25.016 36.5588 24.744C37.0708 24.456 37.4868 24.056 37.8068 23.544V14.784H40.2067V27H37.8068V25.752C36.8628 26.744 35.6467 27.24 34.1587 27.24Z" fill="#1C1729"/>
<path d="M48.7839 27.216C47.6159 27.216 46.5519 26.936 45.5919 26.376C44.6319 25.816 43.8719 25.056 43.3119 24.096C42.7679 23.136 42.4959 22.064 42.4959 20.88C42.4959 19.696 42.7759 18.632 43.3359 17.688C43.8959 16.728 44.6479 15.968 45.5919 15.408C46.5519 14.832 47.6159 14.544 48.7839 14.544C49.7119 14.544 50.5999 14.72 51.4479 15.072C52.3119 15.424 53.0559 15.92 53.6799 16.56L52.1919 18.216C51.7279 17.704 51.2079 17.32 50.6319 17.064C50.0559 16.808 49.4559 16.68 48.8319 16.68C48.0959 16.68 47.4239 16.864 46.8159 17.232C46.2239 17.6 45.7519 18.104 45.3999 18.744C45.0479 19.384 44.8719 20.096 44.8719 20.88C44.8719 21.664 45.0479 22.376 45.3999 23.016C45.7519 23.656 46.2319 24.168 46.8399 24.552C47.4479 24.92 48.1279 25.104 48.8799 25.104C49.5039 25.104 50.0879 24.984 50.6319 24.744C51.1759 24.488 51.6879 24.12 52.1679 23.64L53.6319 25.176C52.9919 25.832 52.2479 26.336 51.3999 26.688C50.5679 27.04 49.6959 27.216 48.7839 27.216Z" fill="#1C1729"/>
<path d="M59.4276 27.216C58.5476 27.216 57.7716 27.064 57.0996 26.76C56.4276 26.44 55.8996 26 55.5156 25.44C55.1316 24.88 54.9396 24.232 54.9396 23.496C54.9396 22.344 55.3796 21.44 56.2596 20.784C57.1396 20.112 58.3476 19.776 59.8836 19.776C61.0836 19.776 62.1956 20.008 63.2196 20.472V19.176C63.2196 18.296 62.9636 17.64 62.4516 17.208C61.9556 16.776 61.2196 16.56 60.2436 16.56C59.6836 16.56 59.0996 16.648 58.4916 16.824C57.8836 16.984 57.2036 17.24 56.4516 17.592L55.5636 15.792C56.4916 15.36 57.3556 15.048 58.1556 14.856C58.9556 14.648 59.7636 14.544 60.5796 14.544C62.1636 14.544 63.3876 14.92 64.2516 15.672C65.1316 16.424 65.5716 17.496 65.5716 18.888V27H63.2196V25.944C62.6756 26.376 62.0916 26.696 61.4676 26.904C60.8436 27.112 60.1636 27.216 59.4276 27.216ZM57.2436 23.448C57.2436 24.04 57.4916 24.52 57.9876 24.888C58.4996 25.24 59.1636 25.416 59.9796 25.416C60.6196 25.416 61.2036 25.328 61.7316 25.152C62.2756 24.96 62.7716 24.664 63.2196 24.264V22.2C62.7556 21.928 62.2676 21.736 61.7556 21.624C61.2596 21.496 60.6996 21.432 60.0756 21.432C59.1956 21.432 58.4996 21.616 57.9876 21.984C57.4916 22.336 57.2436 22.824 57.2436 23.448Z" fill="#1C1729"/>
<path d="M73.2174 27.216C72.0334 27.216 71.1294 26.944 70.5054 26.4C69.8814 25.84 69.5694 25.032 69.5694 23.976V16.8H66.9774V14.784H69.5694V11.664L71.9454 11.088V14.784H75.5454V16.8H71.9454V23.424C71.9454 24.048 72.0814 24.496 72.3534 24.768C72.6414 25.024 73.1054 25.152 73.7454 25.152C74.0814 25.152 74.3774 25.128 74.6334 25.08C74.9054 25.032 75.1934 24.96 75.4974 24.864V26.88C75.1774 26.992 74.8014 27.072 74.3694 27.12C73.9534 27.184 73.5694 27.216 73.2174 27.216Z" fill="#1C1729"/>
<path d="M77.3136 27V14.784H79.7136V27H77.3136ZM78.5136 12.816C78.1136 12.816 77.7696 12.672 77.4816 12.384C77.1936 12.08 77.0496 11.728 77.0496 11.328C77.0496 10.912 77.1936 10.568 77.4816 10.296C77.7696 10.008 78.1136 9.86398 78.5136 9.86398C78.9296 9.86398 79.2816 10.008 79.5696 10.296C79.8576 10.568 80.0016 10.912 80.0016 11.328C80.0016 11.728 79.8576 12.08 79.5696 12.384C79.2816 12.672 78.9296 12.816 78.5136 12.816Z" fill="#1C1729"/>
<path d="M88.3481 27.24C87.1641 27.24 86.0841 26.96 85.1081 26.4C84.1481 25.84 83.3881 25.08 82.8281 24.12C82.2681 23.16 81.9881 22.088 81.9881 20.904C81.9881 19.72 82.2681 18.648 82.8281 17.688C83.3881 16.728 84.1481 15.968 85.1081 15.408C86.0841 14.832 87.1641 14.544 88.3481 14.544C89.5481 14.544 90.6281 14.832 91.5881 15.408C92.5481 15.968 93.3081 16.728 93.8681 17.688C94.4281 18.648 94.7081 19.72 94.7081 20.904C94.7081 22.088 94.4281 23.16 93.8681 24.12C93.3081 25.08 92.5481 25.84 91.5881 26.4C90.6281 26.96 89.5481 27.24 88.3481 27.24ZM88.3481 25.128C89.1001 25.128 89.7801 24.944 90.3881 24.576C90.9961 24.192 91.4761 23.68 91.8281 23.04C92.1801 22.4 92.3561 21.68 92.3561 20.88C92.3561 20.096 92.1721 19.392 91.8041 18.768C91.4521 18.128 90.9721 17.616 90.3641 17.232C89.7721 16.848 89.1001 16.656 88.3481 16.656C87.5961 16.656 86.9161 16.848 86.3081 17.232C85.7161 17.616 85.2361 18.128 84.8681 18.768C84.5161 19.392 84.3401 20.096 84.3401 20.88C84.3401 21.68 84.5161 22.4 84.8681 23.04C85.2201 23.68 85.7001 24.192 86.3081 24.576C86.9161 24.944 87.5961 25.128 88.3481 25.128Z" fill="#1C1729"/>
<path d="M96.9776 27V14.784H99.3776V16.032C100.322 15.04 101.546 14.544 103.05 14.544C103.994 14.544 104.818 14.744 105.522 15.144C106.242 15.544 106.802 16.104 107.202 16.824C107.618 17.544 107.826 18.376 107.826 19.32V27H105.426V19.728C105.426 18.768 105.154 18.016 104.61 17.472C104.082 16.912 103.338 16.632 102.378 16.632C101.738 16.632 101.162 16.768 100.65 17.04C100.138 17.312 99.7136 17.704 99.3776 18.216V27H96.9776Z" fill="#1C1729"/>
<path d="M115.275 27V13.272H109.611V10.2H124.395V13.272H118.755V27H115.275Z" fill="#1C1729"/>
<path d="M129.392 27.24C128.144 27.24 127.008 26.952 125.984 26.376C124.976 25.8 124.176 25.024 123.584 24.048C122.992 23.072 122.696 21.976 122.696 20.76C122.696 19.544 122.976 18.448 123.536 17.472C124.112 16.496 124.888 15.72 125.864 15.144C126.84 14.568 127.928 14.28 129.128 14.28C130.328 14.28 131.392 14.576 132.32 15.168C133.248 15.76 133.976 16.56 134.504 17.568C135.048 18.576 135.32 19.72 135.32 21V21.864H126.056C126.2 22.36 126.432 22.808 126.752 23.208C127.088 23.608 127.496 23.92 127.976 24.144C128.472 24.368 129 24.48 129.56 24.48C130.12 24.48 130.632 24.392 131.096 24.216C131.576 24.04 131.984 23.792 132.32 23.472L134.48 25.44C133.712 26.064 132.92 26.52 132.104 26.808C131.304 27.096 130.4 27.24 129.392 27.24ZM126.008 19.512H132.08C131.968 19.016 131.76 18.584 131.456 18.216C131.168 17.832 130.816 17.536 130.4 17.328C130 17.104 129.552 16.992 129.056 16.992C128.544 16.992 128.08 17.096 127.664 17.304C127.248 17.512 126.896 17.808 126.608 18.192C126.336 18.56 126.136 19 126.008 19.512Z" fill="#1C1729"/>
<path d="M143.404 27.24C142.172 27.24 141.06 26.96 140.068 26.4C139.076 25.824 138.292 25.048 137.716 24.072C137.14 23.08 136.852 21.976 136.852 20.76C136.852 19.528 137.14 18.424 137.716 17.448C138.292 16.472 139.076 15.696 140.068 15.12C141.06 14.544 142.172 14.256 143.404 14.256C144.396 14.256 145.34 14.448 146.236 14.832C147.148 15.216 147.932 15.768 148.588 16.488L146.572 18.624C146.108 18.112 145.62 17.736 145.108 17.496C144.612 17.24 144.068 17.112 143.476 17.112C142.836 17.112 142.26 17.272 141.748 17.592C141.252 17.912 140.852 18.344 140.548 18.888C140.26 19.432 140.116 20.056 140.116 20.76C140.116 21.432 140.26 22.048 140.548 22.608C140.852 23.152 141.268 23.584 141.796 23.904C142.324 24.208 142.908 24.36 143.548 24.36C144.108 24.36 144.628 24.248 145.108 24.024C145.604 23.784 146.076 23.432 146.524 22.968L148.492 25.032C147.852 25.72 147.084 26.264 146.188 26.664C145.292 27.048 144.364 27.24 143.404 27.24Z" fill="#1C1729"/>
<path d="M150.201 27V10.2L153.489 9.47998V15.528C154.433 14.68 155.601 14.256 156.993 14.256C157.969 14.256 158.825 14.472 159.561 14.904C160.313 15.32 160.897 15.904 161.313 16.656C161.729 17.392 161.937 18.256 161.937 19.248V27H158.649V19.728C158.649 18.912 158.417 18.272 157.953 17.808C157.489 17.328 156.857 17.088 156.057 17.088C155.497 17.088 155.001 17.2 154.569 17.424C154.137 17.632 153.777 17.936 153.489 18.336V27H150.201Z" fill="#1C1729"/>
<path d="M172.88 18.84V11.8H166.32V7.68002H172.88V0.640015H177.12V7.68002H183.68V11.8H177.12V18.84H172.88Z" fill="#FF6240"/>
</svg>
