<svg width="195" height="60" viewBox="0 0 195 60" fill="none" xmlns="http://www.w3.org/2000/svg">
<g id="Frame 237">
<path id="Vector" d="M185.569 0.297974C179.737 0.211815 173.972 0.642611 168.344 2.32887C165.381 3.21508 162.567 4.40284 159.968 6.07679C156.598 8.24308 153.445 10.6986 150.433 13.3326C147.612 15.7943 144.791 18.256 142.033 20.7854C139.774 22.8532 137.589 25.0072 135.385 27.1427C131.892 30.5275 128.411 33.9247 124.93 37.328C124.418 37.8326 123.955 38.3926 123.474 38.928C123.998 38.8911 124.443 38.768 124.85 38.5711C128.121 37.0079 131.472 35.6602 134.923 34.5462C139.484 33.0754 144.088 31.7953 148.779 30.7983C150.007 30.5398 151.229 30.4168 152.297 29.4259C156.185 25.8134 160.197 22.3301 164.165 18.8037C164.702 18.3237 165.221 17.8252 165.801 17.4006C166.017 17.2406 166.424 17.1606 166.652 17.259C167.017 17.4129 166.986 17.7944 166.801 18.1329C166.646 18.4099 166.51 18.6991 166.356 18.9699C164.684 21.9239 162.999 24.878 161.326 27.8381C161.178 28.1028 161.073 28.3982 160.906 28.7797C161.289 28.7797 161.554 28.7982 161.82 28.7797C165.239 28.5089 168.658 28.1766 172.084 27.9674C174.411 27.8197 176.744 27.8443 179.07 27.7581C179.57 27.7397 179.743 27.7274 179.965 27.3704C180.002 27.3027 180.046 27.2289 180.083 27.1612C181.601 24.521 183.07 21.8562 184.563 19.1976C187.637 13.7265 190.711 8.26154 193.79 2.79659C194.179 2.10732 194.556 1.41189 195 0.605686C194.692 0.562606 194.506 0.519526 194.321 0.513372C191.396 0.439522 188.476 0.341054 185.551 0.297974H185.569Z" fill="#D90000"/>
<path id="Vector_2" d="M189.377 30.0166C186.347 30.0166 183.316 30.0166 180.286 30.0166C175.966 30.2382 171.639 30.2012 167.331 30.5089C162.381 30.8597 157.456 31.4505 152.593 32.4414C149.087 33.1553 145.575 33.863 142.113 34.7369C139.533 35.3892 137.002 36.2262 134.49 37.1124C131.88 38.0294 129.269 38.9772 126.757 40.128C123.973 41.4081 121.264 42.8543 118.604 44.3683C114.691 46.5899 111.08 49.2547 107.895 52.4488C106.217 54.1289 104.6 55.8582 103.433 57.9383C102.816 59.0399 103.236 59.8215 104.501 59.9446C104.692 59.9631 104.884 59.9569 105.075 59.9569C109.124 59.9569 113.172 59.8892 117.221 59.9938C118.807 60.0369 120.196 59.8769 121.319 58.6707C121.393 58.5968 121.486 58.5414 121.566 58.4737C124.992 55.7043 128.633 53.2365 132.41 50.9902C136.546 48.5224 140.804 46.2638 145.248 44.3621C150.068 42.2943 154.907 40.3003 159.962 38.8602C163.646 37.814 167.3 36.6509 171.028 35.7893C176.003 34.6384 181.027 33.7338 186.032 32.7306C187.384 32.4598 188.742 32.2444 190.093 31.986C190.593 31.8936 190.784 31.5675 190.747 31.0628C190.692 30.312 190.352 30.0289 189.383 30.0289L189.377 30.0166Z" fill="black"/>
<path id="Vector_3" d="M103.785 53.5812C106.359 50.4302 109.426 47.7901 112.753 45.4884C115.444 43.6237 118.32 42.0297 121.097 40.2819C121.369 40.1096 121.455 39.9065 121.579 39.5803C121.671 39.3342 121.696 38.8357 121.721 38.5649C122.523 30.4782 123.344 22.3916 124.109 14.2988C124.313 12.1325 124.066 9.99699 123.109 7.99071C121.64 4.89514 118.882 3.35043 115.938 2.04573C115.851 2.00881 115.826 1.9965 115.734 1.95342C115.259 1.73802 115.092 2.03342 114.956 2.21805C114.475 2.85809 114.055 3.54736 113.623 4.22433C111.13 8.14457 108.618 12.0525 106.174 15.9974C105.39 17.2651 104.6 18.5883 104.149 19.9915C103.748 21.2469 103.742 22.6439 103.699 23.9855C103.439 32.9522 103.217 41.919 102.989 50.8918C102.964 51.9626 102.989 53.0335 102.989 54.0982C102.989 54.2766 102.989 54.449 102.976 54.6213C102.964 54.7751 103.23 54.3874 103.291 54.3013C103.452 54.0612 103.588 53.8028 103.773 53.5812H103.785Z" fill="#D90000"/>
<path id="Vector_4" d="M95.1074 29.6228C89.2379 29.6105 83.3622 29.5243 77.4927 29.6474C74.8079 29.7028 72.7527 30.9275 71.6355 33.8508C70.5678 36.6448 69.2532 39.2419 67.0066 41.3035C65.8216 42.3928 64.5131 43.2913 63.0195 43.8391C60.094 44.9161 57.0636 45.0576 54.0023 44.596C51.8483 44.2699 49.7067 44.196 47.5588 44.6576C45.769 45.0453 44.1026 45.5746 43.0101 47.23C40.7327 50.6826 38.4059 54.1043 36.1037 57.5384C35.8137 57.9692 35.5606 58.4184 35.2026 58.9908C36.4864 58.9908 37.5788 59.0092 38.6774 58.9908C42.7324 59.0585 44.8555 59.2308 48.0773 59.2185C50.1696 59.2062 52.2557 59.4031 54.2183 58.6092C57.724 57.1937 59.9336 54.5228 61.3037 51.0826C62.353 48.4486 64.1366 46.4915 66.8276 45.4699C68.8335 44.713 70.9443 44.4914 73.0736 44.5283C76.6903 44.5899 80.3133 44.7437 83.93 44.7191C85.652 44.7068 87.4048 44.3929 88.5651 42.9036C89.5588 41.6235 90.534 40.3127 91.3487 38.9157C92.7497 36.5094 94.0211 34.0354 95.3357 31.5798C95.5209 31.2291 95.6814 30.8536 95.7801 30.4659C95.9468 29.8259 95.7801 29.6167 95.1074 29.6167V29.6228Z" fill="black"/>
<path id="Vector_5" d="M106.525 11.8186C107.284 10.7539 108.037 9.67694 108.704 8.55071C109.845 6.63059 110.932 4.67355 112.024 2.72266C112.45 1.95954 112.845 1.1718 113.333 0.236355C112.462 0.236355 111.796 0.236355 111.123 0.236355C106.309 0.236355 101.501 0.217892 96.6869 0.260972C95.0575 0.27328 93.4405 0.482524 91.953 1.28257C90.4533 2.09493 89.1633 3.10422 88.398 4.67971C87.6944 6.13826 87.0772 7.6522 86.2255 9.01843C84.8245 11.2709 82.8741 12.9879 80.3807 13.9972C77.2145 15.2834 73.9248 15.3942 70.5735 14.9019C69.1786 14.6988 67.7714 14.3418 66.3581 14.7603C65.568 14.9942 64.7595 15.2034 64.0127 15.5419C62.55 16.2004 61.1366 16.8835 60.1306 18.2682C58.137 21.0192 56.6249 24.0347 54.9955 26.9888C54.5758 27.7457 54.187 28.515 53.7982 29.2905C53.6007 29.6782 53.7673 29.8505 54.1808 29.8136C54.4771 29.7889 54.7733 29.7459 55.0634 29.7397C60.0874 29.6905 65.1052 29.672 70.1291 29.5797C70.95 29.5674 71.814 29.3581 72.5794 29.0443C74.3939 28.3058 75.8999 27.198 76.5849 25.241C76.8256 24.5455 77.1219 23.8624 77.4428 23.2039C79.4611 19.0683 82.6519 16.2743 87.1451 15.1234C90.12 14.3603 93.1504 14.4772 96.1746 14.9142C98.2176 15.2096 100.242 15.3696 102.229 14.4957C103.797 13.8064 105.457 13.2833 106.513 11.8063L106.525 11.8186Z" fill="black"/>
<path id="Vector_6" d="M38.1343 20.1454C39.6958 18.0715 41.5968 16.4529 44.047 15.5482C46.8306 14.5205 49.7005 14.3482 52.626 14.742C53.8234 14.902 55.0207 15.0313 56.0021 15.1482C59.7731 14.982 62.7665 13.8989 64.5872 10.5756C66.3647 7.32004 68.2163 4.10138 70.037 0.864255C70.2777 0.433459 70.1605 0.285758 69.6235 0.298067C68.099 0.328838 66.5746 0.359609 65.0501 0.378071C61.0445 0.433459 57.0389 0.402688 53.0395 0.556544C50.2869 0.661166 48.4168 2.19357 47.2935 4.67372C46.7627 5.84302 46.2257 7.01233 45.6271 8.1447C44.4544 10.3664 42.7201 12.0957 40.5352 13.3081C39.4366 13.9174 38.2454 14.4343 37.0296 14.742C34.5052 15.3882 31.9192 15.4682 29.3332 15.0867C27.1915 14.7666 25.0807 14.5082 22.9391 15.3021C21.4022 15.8806 20.0259 16.5945 19.168 18.0222C16.9646 21.7148 14.7983 25.4319 12.6134 29.1429C12.3295 29.6229 12.5394 29.7276 12.9961 29.7276C17.4892 29.7214 21.9824 29.7276 26.4756 29.7153C27.6421 29.7153 28.8086 29.746 29.9689 29.6291C32.4685 29.3768 34.2831 28.0844 35.2706 25.7704C36.0976 23.8318 36.8444 21.8686 38.1343 20.1516V20.1454Z" fill="black"/>
<path id="Vector_7" d="M168.325 38.7372C164.912 39.7218 161.499 40.7311 158.104 41.7773C156.568 42.2512 155.093 42.922 153.556 43.3651C152.679 43.6175 152.118 44.0606 151.692 44.8298C150.507 46.9715 149.291 49.0947 148.087 51.2241C146.841 53.4273 145.582 55.6243 144.335 57.8276C143.983 58.4553 144.051 58.6215 144.736 58.7015C147.47 59.0092 150.204 59.2984 152.939 59.5938C154.111 59.6923 154.821 59.7046 155.537 59.6369C157.45 59.4584 158.87 58.7999 160.505 57.7045C163.369 55.7905 165.27 53.0642 166.955 50.1594C169.276 46.1592 171.553 42.1404 173.843 38.1217C173.935 37.9556 174.201 37.494 174.256 37.3032C173.886 37.334 173.565 37.4202 173.368 37.4632C171.683 37.8694 169.985 38.251 168.319 38.731L168.325 38.7372Z" fill="#DC0000"/>
<path id="Vector_8" d="M21.0569 12.2619C21.8716 11.1111 22.6061 9.89254 23.2665 8.64939C24.5317 6.26771 25.7167 3.84294 26.9388 1.43664C27.2721 0.784291 27.198 0.624282 26.4635 0.568894C24.2231 0.40273 21.9889 0.236565 19.7485 0.0765557C16.7242 -0.132688 13.7185 0.0765556 10.793 0.833525C7.2133 1.75666 4.46062 3.84294 2.86826 7.21546C1.84989 9.38174 1.02903 11.6403 0.0970641 13.8497C-0.125125 14.379 0.0353448 14.5205 0.566131 14.539C3.10897 14.6067 6.73189 14.8775 8.18846 14.9329C10.6264 14.9329 13.0581 14.9759 15.496 14.9205C17.7303 14.8713 19.7238 14.1513 21.0631 12.2558L21.0569 12.2619Z" fill="black"/>
<path id="Vector_9" d="M83.6644 46.9962C82.1461 46.8485 80.6339 46.67 79.1156 46.5346C76.5605 46.3069 74.0115 46.1161 71.4501 46.5223C69.9195 46.7685 68.5061 47.2239 67.2532 48.1716C65.3337 49.624 64.1611 51.618 63.1118 53.6981C62.4144 55.089 61.8528 56.5537 61.2356 57.9876C61.0628 58.3938 61.143 58.6769 61.6614 58.7261C63.9142 58.9231 66.1669 59.1323 67.3458 59.2431C71.0489 59.2308 73.6473 59.0708 76.0914 58.0184C78.0788 57.163 79.8316 56.006 81.14 54.2151C82.5719 52.2519 83.4236 50.0425 84.2075 47.7839C84.3926 47.2423 84.1705 47.0516 83.6582 47.0023L83.6644 46.9962Z" fill="#D90000"/>
<path id="Vector_10" d="M100.187 17.4868C95.8231 17.0253 91.4534 16.5083 87.0898 17.4376C84.8741 17.9115 83.0534 18.9885 81.6894 20.8409C80.3871 22.6072 79.844 24.6627 79.2823 26.7182C79.128 27.2844 79.4551 27.3151 79.918 27.4505C80.5661 27.6413 82.9423 27.8321 84.763 27.8198C86.9725 27.6228 89.2068 27.5551 91.3916 27.1982C94.348 26.712 96.897 25.3335 98.7054 22.8902C99.5756 21.7148 100.255 20.3916 100.989 19.1116C101.723 17.8315 101.637 17.6407 100.187 17.4868Z" fill="#D90000"/>
</g>
</svg>
