<svg width="11" height="97" viewBox="0 0 11 97" fill="none" xmlns="http://www.w3.org/2000/svg">
<path d="M9.51684 35.9724C9.77558 36.2312 10.1749 35.8318 9.91619 35.5787L7.80696 33.4639C8.52129 32.6708 8.95438 31.6246 8.95438 30.4772C8.95438 28.008 6.9464 26 4.47719 26C2.00799 26 0 28.008 0 30.4772C0 32.9464 2.00799 34.9544 4.47719 34.9544C5.59086 34.9544 6.62017 34.5438 7.40761 33.8632L9.51684 35.9724ZM0.561899 30.4772C0.561899 28.3173 2.3224 26.5625 4.47663 26.5625C6.63648 26.5625 8.39136 28.3173 8.39136 30.4772C8.39136 32.637 6.63648 34.3919 4.47663 34.3919C2.3224 34.3919 0.561899 32.637 0.561899 30.4772Z" fill="white"/>
<path d="M2.95637 7.59412L3.64384 6.74677L1.43074 5.00054L3.64384 3.25431L2.95637 2.40697L0.206498 4.57687C0.142066 4.62769 0.0900512 4.69216 0.0543057 4.7655C0.0185601 4.83884 0 4.91917 0 5.00054C0 5.08192 0.0185601 5.16225 0.0543057 5.23559C0.0900512 5.30893 0.142066 5.3734 0.206498 5.42422L2.95637 7.59412ZM8.04363 2.40697L7.35616 3.25431L9.56926 5.00054L7.35616 6.74677L8.04363 7.59412L10.7935 5.42422C10.8579 5.3734 10.9099 5.30893 10.9457 5.23559C10.9814 5.16225 11 5.08192 11 5.00054C11 4.91917 10.9814 4.83884 10.9457 4.7655C10.9099 4.69216 10.8579 4.62769 10.7935 4.57687L8.04363 2.40697ZM7.13672 0.235435L4.93683 10L3.86273 9.76457L6.06262 0L7.13672 0.235435Z" fill="white"/>
<path d="M9 55H1C0.4485 55 0 55.4485 0 56V62C0 62.5515 0.4485 63 1 63H2.5V64.8835L5.6385 63H9C9.5515 63 10 62.5515 10 62V56C10 55.4485 9.5515 55 9 55ZM9 62H5.3615L3.5 63.1165V62H1V56H9V62Z" fill="white"/>
<path d="M4.5 61H5.5V59.5H7V58.5H5.5V57H4.5V58.5H3V59.5H4.5V61Z" fill="white"/>
<path d="M7.4 88C6.51771 88 5.8 88.785 5.8 89.75C5.8 90.527 6.26857 91.1795 6.91086 91.4075C6.84411 91.8735 6.6608 92.2575 6.34857 92.569C5.45897 93.4555 3.82194 93.5365 3.05714 93.5225V90.4185C3.71543 90.2015 4.2 89.54 4.2 88.75C4.2 87.785 3.48229 87 2.6 87C1.71771 87 1 87.785 1 88.75C1 89.54 1.48457 90.2015 2.14286 90.4185V93.5815C1.48457 93.7985 1 94.46 1 95.25C1 96.215 1.71771 97 2.6 97C3.48229 97 4.2 96.215 4.2 95.25C4.2 94.9745 4.136 94.7175 4.03223 94.4855C4.97394 94.3925 6.16114 94.107 6.96206 93.3105C7.46354 92.812 7.75337 92.1785 7.83246 91.4265C8.504 91.219 9 90.55 9 89.75C9 88.785 8.28229 88 7.4 88ZM1.91429 88.75C1.91429 88.3365 2.22194 88 2.6 88C2.97806 88 3.28571 88.3365 3.28571 88.75C3.28571 89.1635 2.97806 89.5 2.6 89.5C2.22194 89.5 1.91429 89.1635 1.91429 88.75ZM2.6 96C2.22194 96 1.91429 95.6635 1.91429 95.25C1.91451 95.0528 1.98573 94.8637 2.11253 94.7235C2.23933 94.5833 2.4115 94.5034 2.59177 94.501L2.6512 94.506C2.74089 94.5097 2.82904 94.5326 2.91061 94.5736C2.99219 94.6145 3.06559 94.6726 3.12664 94.7446C3.18768 94.8166 3.23516 94.901 3.26638 94.993C3.2976 95.085 3.31193 95.1829 3.30857 95.281C3.30521 95.3791 3.28421 95.4755 3.24679 95.5647C3.20936 95.654 3.15623 95.7342 3.09043 95.801C3.02463 95.8678 2.94746 95.9197 2.86331 95.9539C2.77916 95.988 2.68969 96.0037 2.6 96ZM7.4 90.5C7.02194 90.5 6.71429 90.1635 6.71429 89.75C6.71429 89.3365 7.02194 89 7.4 89C7.77806 89 8.08571 89.3365 8.08571 89.75C8.08571 90.1635 7.77806 90.5 7.4 90.5Z" fill="white"/>
</svg>
