<svg width="1728" height="247" viewBox="0 0 1728 247" fill="none" xmlns="http://www.w3.org/2000/svg">
<path d="M-69 1H299.172C328.106 1 356.422 9.36785 380.707 25.095L472.293 84.405C496.578 100.132 524.894 108.5 553.828 108.5H864" stroke="url(#paint0_linear_1471_7)"/>
<path d="M-69 246.5H299.172C328.106 246.5 356.422 238.132 380.707 222.405L472.293 163.095C496.578 147.368 524.894 139 553.828 139H864" stroke="url(#paint1_linear_1471_7)"/>
<line y1="122.5" x2="862" y2="122.5" stroke="url(#paint2_linear_1471_7)"/>
<path d="M1796 1H1427.83C1398.89 1 1370.58 9.36785 1346.29 25.095L1254.71 84.405C1230.42 100.132 1202.11 108.5 1173.17 108.5H863" stroke="url(#paint3_linear_1471_7)"/>
<path d="M1796 246.5H1427.83C1398.89 246.5 1370.58 238.132 1346.29 222.405L1254.71 163.095C1230.42 147.368 1202.11 139 1173.17 139H863" stroke="url(#paint4_linear_1471_7)"/>
<line y1="-0.5" x2="862" y2="-0.5" transform="matrix(-1 0 0 1 1727 123)" stroke="url(#paint5_linear_1471_7)"/>
<defs>
<linearGradient id="paint0_linear_1471_7" x1="127" y1="0.99986" x2="774.5" y2="109" gradientUnits="userSpaceOnUse">
<stop stop-color="#0066FF"/>
<stop offset="1" stop-color="#FFDDB7"/>
</linearGradient>
<linearGradient id="paint1_linear_1471_7" x1="127" y1="246.5" x2="774.5" y2="138.5" gradientUnits="userSpaceOnUse">
<stop stop-color="#0066FF"/>
<stop offset="1" stop-color="#FFDDB7"/>
</linearGradient>
<linearGradient id="paint2_linear_1471_7" x1="338" y1="123" x2="862" y2="123" gradientUnits="userSpaceOnUse">
<stop stop-color="#0066FF"/>
<stop offset="1" stop-color="#FFDDB7"/>
</linearGradient>
<linearGradient id="paint3_linear_1471_7" x1="1600" y1="0.99986" x2="952.5" y2="109" gradientUnits="userSpaceOnUse">
<stop stop-color="#0066FF"/>
<stop offset="1" stop-color="#FFDDB7"/>
</linearGradient>
<linearGradient id="paint4_linear_1471_7" x1="1600" y1="246.5" x2="952.5" y2="138.5" gradientUnits="userSpaceOnUse">
<stop stop-color="#0066FF"/>
<stop offset="1" stop-color="#FFDDB7"/>
</linearGradient>
<linearGradient id="paint5_linear_1471_7" x1="338" y1="0" x2="862" y2="-3.84585e-08" gradientUnits="userSpaceOnUse">
<stop stop-color="#0066FF"/>
<stop offset="1" stop-color="#FFDDB7"/>
</linearGradient>
</defs>
</svg>
