<svg width="316" height="37" viewBox="0 0 316 37" fill="none" xmlns="http://www.w3.org/2000/svg">
<path d="M19.4555 24.1005L19.4383 24.1689H19.4268C18.6798 26.19 17.5134 28.1164 15.9563 29.9164C13.1523 33.1639 9.57836 35.3113 5.33791 36.3008C4.4473 36.506 3.67161 36.6376 2.94763 36.7113C2.90741 36.7271 2.86719 36.7324 2.84421 36.7324C2.39028 36.7745 2.05128 36.7955 1.71227 36.8008H1.67205C0.746963 36.8008 0.0057471 36.106 0.0057471 35.2744V32.1323C0.160886 31.5112 0.723979 31.0375 1.41348 30.9428H1.42498C1.52266 30.9428 1.60884 30.9322 1.70652 30.9217H1.741C2.12023 30.8954 2.48796 30.8533 2.83271 30.8059C2.83271 30.8059 3.01084 30.7849 3.05106 30.7743C4.97018 30.4849 6.59626 29.8796 7.98101 28.9059C10.153 27.3953 11.7446 25.6216 12.7041 23.6374C12.7616 23.5163 12.8937 23.2268 12.8937 23.2268C13.4626 21.9742 13.8016 20.5636 13.8993 19.0425C14.0084 17.1372 13.6867 15.3267 12.9397 13.674C12.888 13.574 12.842 13.4687 12.7961 13.374L12.7156 13.2056C12.1295 12.0055 11.2677 10.816 10.1644 9.70019C8.42345 7.93174 6.02167 6.71593 3.21769 6.1896L3.13724 6.17908C3.07979 6.17908 3.02807 6.16329 2.98211 6.15276C2.98211 6.15276 2.77526 6.12118 2.73503 6.11065C2.37879 6.06328 1.97083 6.01592 1.54564 5.9896C0.678014 5.9317 0 5.26327 0 4.46851V1.52635C0 0.684221 0.746964 0 1.65481 0C1.70652 0 1.75249 0 1.79271 0C2.10299 0.026317 2.40177 0.057895 2.68907 0.089475C2.76951 0.100002 2.83846 0.105265 2.90741 0.126318C7.20532 0.652641 11.0321 2.37373 14.2153 5.21064C16.6688 7.39489 18.4213 9.93709 19.4268 12.7792L19.444 12.8319C19.7428 13.7056 19.9899 14.6687 20.168 15.7056C20.6679 18.6478 20.4266 21.4794 19.444 24.1216L19.4555 24.1005Z" fill="#F01920"/>
<path d="M34.296 26.7155C35.9958 29.6184 36.9291 32.7435 37.1428 36.2502C37.1428 36.3902 37.0959 36.5255 36.9916 36.6366C36.8821 36.738 36.7257 36.8008 36.5641 36.8008H32.0436C31.7569 36.8008 31.5222 36.6172 31.4753 36.3661C31.4232 36.1004 31.3762 35.8251 31.3241 35.5498C31.126 34.4485 30.9226 33.3134 30.5264 32.2363C28.9518 27.9616 26.1988 24.9911 22.3301 23.4068C22.0537 23.3006 21.9182 23.0204 21.9964 22.7548C22.6534 20.6198 22.7837 18.3593 22.3979 16.0554C22.3197 15.6303 22.2414 15.2246 22.1424 14.8333C22.0746 14.558 22.0225 14.4711 21.9755 14.2586C21.8556 13.7176 22.2779 13.2442 22.8463 13.138C22.8463 13.138 23.0757 13.0752 23.0809 13.0752C23.9099 12.6405 24.6086 12.1864 25.3959 11.5972C27.5284 9.99839 29.1082 8.04217 30.1093 5.77684C30.2813 5.39526 30.4377 5.00402 30.5733 4.59829C30.6776 4.31814 30.761 4.0235 30.8496 3.72886C31.0895 2.85944 31.225 1.99001 31.3658 1.06746L31.4649 0.449201C31.5066 0.193206 31.7569 0 32.0332 0H36.5849C36.7414 0 36.8926 0.062792 37.0125 0.173885C37.1168 0.275318 37.1741 0.415391 37.1585 0.555471C37.0177 2.72419 36.6162 4.75285 35.9489 6.64626V6.66558C35.9019 6.87811 35.8341 7.08097 35.7299 7.27901C34.1709 11.3267 31.3971 14.7367 27.3511 17.6107C27.0591 17.8232 26.8871 18.1372 26.8975 18.4801C26.8975 18.8279 27.0748 19.137 27.3772 19.3399C30.2813 21.2719 32.5442 23.6821 34.3117 26.7155H34.296Z" fill="#F01920"/>
<path d="M6.30289 22.3917H2.72413C1.21785 22.3917 0 21.2577 0 19.8551V15.334" fill="#F01920"/>
<mask id="mask0_1_40" style="mask-type:luminance" maskUnits="userSpaceOnUse" x="61" y="1" width="255" height="35">
<path d="M315.025 1.08301H61.6934V35.7174H315.025V1.08301Z" fill="white"/>
</mask>
<g mask="url(#mask0_1_40)">
<path d="M281.712 22.2522C281.673 22.0908 281.634 21.9295 281.595 21.7737C281.411 21.8516 281.177 21.885 281.054 22.0185C279.987 23.1534 279.01 24.3774 277.877 25.4401C274.103 28.9729 269.698 31.5044 264.707 33.0677C262 33.9189 259.236 34.4753 256.378 34.5421C255.87 34.5532 255.362 34.6811 254.703 34.7813V1.8617H261.341C261.397 2.62391 261.492 3.36942 261.492 4.1205C261.503 10.73 261.508 17.3395 261.492 23.949C261.492 24.817 261.369 25.6904 261.319 26.5583C261.291 27.1036 261.447 27.2983 262.1 27.1258C266.092 26.0521 269.553 24.0937 272.64 21.4232C276.186 18.3577 278.687 14.6189 280.133 10.2627C280.775 8.33212 281.009 6.26804 281.394 4.25959C281.539 3.49738 281.584 2.71292 281.685 1.87839H288.188V27.3372C294.195 25.7794 299.064 22.7362 302.832 17.9849C306.595 13.2392 308.376 7.84809 308.504 1.82275C310.48 1.82275 312.44 1.82832 314.405 1.82275C315.008 1.82275 315.058 2.18438 315.014 2.61278C314.829 4.4877 314.773 6.38487 314.422 8.22641C313.824 11.3476 312.725 14.3241 311.201 17.1448C309.297 20.6665 306.807 23.7543 303.77 26.3803C300.141 29.5237 295.96 31.7881 291.309 33.179C288.507 34.0191 285.659 34.6756 282.701 34.7201C282.394 34.7201 282.092 34.7201 281.668 34.7201C281.668 30.5919 281.668 26.5528 281.668 22.5081C281.685 22.4246 281.701 22.3412 281.712 22.2577V22.2522Z" fill="#F01920"/>
<path d="M250.943 28.4556H252.082V34.8259H251.004C243.557 34.8259 236.115 34.8593 228.668 34.8092C223.777 34.7814 219.718 31.7103 218.909 27.0258C218.753 26.1134 218.708 25.1731 218.697 24.244C218.674 21.8016 218.713 19.3536 218.68 16.9057C218.663 15.7652 218.468 14.6246 218.524 13.4952C218.585 12.1878 218.736 10.8915 219.132 9.66748H227.227C226.881 9.82878 226.563 10.0625 226.317 10.4186C225.932 10.9471 225.564 11.5814 225.497 12.1933C225.363 13.3283 225.457 14.48 225.457 15.7095H226.496C233.82 15.7095 241.139 15.7262 248.453 15.6928C249.346 15.6873 249.742 15.8263 249.692 16.7833C249.642 18.1853 249.72 19.5929 249.837 20.9893C249.904 21.8294 249.647 22.1076 248.715 22.102C241.268 22.0687 233.826 22.102 226.379 22.0687C225.446 22.0631 225.195 22.3302 225.24 23.1647C225.312 24.4666 225.134 25.7851 225.887 26.9813C226.457 27.8937 227.289 28.4334 228.411 28.4389C235.914 28.4556 243.428 28.4556 250.937 28.4612L250.943 28.4556Z" fill="#F01920"/>
<path d="M210 21.2679C210.91 20.6893 211.853 20.2331 212.612 19.5821C215.264 17.3233 216.481 14.5805 215.912 11.1422C215.823 10.6248 215.7 10.1297 215.549 9.66228H207.504C207.979 9.85148 208.409 10.163 208.744 10.6582C209.481 11.7431 209.581 12.9114 209.062 14.0408C208.52 15.2092 207.381 15.6988 206.086 15.7043C200.732 15.7266 195.39 15.7043 190.041 15.7099C189.606 15.7155 189.31 15.6598 189.349 15.1702C189.327 15.1257 189.304 15.0868 189.288 15.0423C189.288 15.0367 189.332 15.0145 189.355 14.9922V9.65668H182.6V34.7707H189.36V22.2526C192.168 22.2526 194.843 22.2749 197.511 22.236C199.225 22.2137 200.788 22.7256 202.245 23.4599C205.595 25.1568 207.901 27.7272 208.905 31.2155C209.246 32.3839 209.358 33.6079 209.559 34.7595H216.085C215.934 29.4741 213.874 25.0233 209.989 21.2568L210 21.2679Z" fill="white"/>
<path d="M68.3647 35.0214C68.5043 35.4943 68.2866 35.5945 67.8455 35.5945C65.9977 35.5778 64.1498 35.5833 62.2572 35.5833C61.9502 35.5833 61.6934 35.333 61.6934 35.027V2.43565C61.6934 2.12965 61.9446 1.87929 62.2516 1.87929H67.7562C68.0633 1.87929 68.3145 2.12965 68.3145 2.43565V14.7701C68.3145 15.0761 68.5713 15.3264 68.8784 15.3264C69.8163 15.3264 70.6927 15.3264 71.5692 15.3264C72.8477 15.3264 74.1317 15.3654 75.4102 15.332C77.9615 15.2708 80.4737 14.503 82.5672 13.0509C85.353 11.1204 87.1507 8.57782 87.9602 5.41771C88.217 4.42184 88.3342 3.39258 88.4961 2.34107C88.5352 2.06845 88.7752 1.86816 89.0488 1.86816H94.4976C94.8158 1.86816 95.0782 2.13521 95.0614 2.4579C94.693 9.0841 91.8681 14.3305 86.5701 18.3085C86.263 18.5422 86.2686 18.9984 86.5868 19.2154C89.1772 21.0346 91.1479 23.3157 92.6329 26.053C94.1347 28.8181 94.8939 31.7556 95.0503 34.9268C95.067 35.244 94.8046 35.511 94.4864 35.511H89.0656C88.7976 35.511 88.5631 35.3219 88.5129 35.0548C88.284 33.7863 88.1277 32.4622 87.7034 31.2271C86.0788 26.4869 82.8296 23.3491 77.8498 22.509C74.9691 22.0249 71.9991 22.075 68.9342 21.9304C68.616 21.9137 68.348 22.164 68.348 22.4867V34.8378C68.348 34.8378 68.2866 34.8823 68.2922 34.8935C68.3089 34.938 68.3368 34.9825 68.3592 35.0214H68.3647Z" fill="#F01920"/>
<path d="M252.171 1.08857V3.91486C252.171 5.07208 252.171 6.21261 252.148 7.34201C252.143 7.50892 251.83 7.7259 251.624 7.82048C251.607 7.82604 251.584 7.83717 251.573 7.83717H178.071C174.135 7.83717 170.199 7.79822 166.258 7.8316C165.225 7.83717 164.187 7.85386 163.148 7.87055C161.205 7.90949 159.279 8.29338 157.66 9.52849C155.009 11.5481 153.451 14.1351 153.267 17.54C153.11 20.4943 154.149 22.9923 156.069 25.0953C157.426 26.5752 159.229 27.4932 161.233 27.8938C162.076 28.0496 162.947 28.0885 163.818 28.0885C168.882 28.1108 173.951 28.1275 179.026 28.083C179.958 28.0774 180.209 28.3834 180.153 29.2513C180.047 30.9816 180.019 32.723 179.952 34.4588C179.952 34.559 179.93 34.648 179.908 34.8538H178.919C173.783 34.8538 168.653 34.9261 163.522 34.8316C159.023 34.7426 155.053 33.2348 151.754 30.0525C149.029 27.4209 147.343 24.2219 146.757 20.5388C146.004 15.7652 147.232 11.4257 150.252 7.59237C152.563 4.66594 155.494 2.69088 159.106 1.76176C160.1 1.50584 161.144 1.31668 162.171 1.29442C163.533 1.27217 164.901 1.24991 166.269 1.22766C170.462 1.16646 174.649 1.13864 178.836 1.08301H252.187L252.171 1.08857Z" fill="white"/>
<path d="M126.562 8.53917C126.562 9.00651 126.562 9.34588 126.562 9.67969C126.562 18.025 126.562 26.3704 126.579 34.7157C126.579 35.35 126.439 35.6115 125.752 35.5948C123.821 35.5558 121.884 35.5836 119.879 35.5836V8.57255C119.477 8.57255 119.142 8.57255 118.808 8.57255C114.961 8.57255 111.109 8.55586 107.262 8.58924C106.525 8.5948 106.28 8.39451 106.302 7.63231C106.352 5.73513 106.319 3.8324 106.319 1.87402H139.944V8.53917H126.562Z" fill="#F01920"/>
<path d="M104.347 3.69336V35.7172H97.6367V9.25135L104.347 3.69336Z" fill="#F01920"/>
<path d="M281.713 22.793C281.696 22.8764 281.679 22.9655 281.668 23.0489C281.685 22.9655 281.701 22.8764 281.713 22.793Z" fill="#F01920"/>
<path d="M68.3663 35.0236C68.3438 34.9787 68.31 34.9394 68.2987 34.8945C68.2987 34.8833 68.3382 34.8552 68.355 34.8384C68.355 34.9001 68.3663 34.9619 68.3663 35.0236Z" fill="#F01920"/>
<path d="M189.361 14.5752C189.361 14.6369 189.355 14.6987 189.349 14.7604C189.332 14.7155 189.304 14.6706 189.293 14.6257C189.293 14.6145 189.332 14.592 189.355 14.5752H189.361Z" fill="#F01920"/>
<path d="M97.3397 7.74188V2.74581C97.3397 2.43981 97.591 2.18945 97.898 2.18945H104.045" fill="#F01920"/>
</g>
</svg>
