<svg width="217" height="217" viewBox="0 0 217 217" fill="none" xmlns="http://www.w3.org/2000/svg">
<path d="M108.5 0L123.713 61.0798C125.147 66.8364 125.864 69.7148 126.958 72.256C130.395 80.2405 136.76 86.6052 144.744 90.0423C147.285 91.1362 150.164 91.8531 155.92 93.2869L217 108.5L155.92 123.713C150.164 125.147 147.285 125.864 144.744 126.958C136.76 130.395 130.395 136.76 126.958 144.744C125.864 147.285 125.147 150.164 123.713 155.92L108.5 217L93.2869 155.92C91.8531 150.164 91.1362 147.285 90.0423 144.744C86.6052 136.76 80.2405 130.395 72.256 126.958C69.7148 125.864 66.8364 125.147 61.0797 123.713L0 108.5L61.0798 93.2869C66.8364 91.8531 69.7148 91.1362 72.256 90.0423C80.2405 86.6052 86.6052 80.2405 90.0423 72.256C91.1362 69.7148 91.8531 66.8364 93.2869 61.0797L108.5 0Z" fill="white"/>
</svg>
